<svg version="1.2" xmlns="http://www.w3.org/2000/svg" viewBox="0 0 1085 1105" width="1085" height="1105">
	<title>38B834AF-CFE0-44DE-9FF2-8622BC35ED72</title>
	<style>
		.s0 { fill: #000001 } 
		.s1 { fill: #ffffff } 
		.s2 { fill: #ff6600 } 
		.s3 { fill: #7f8080 } 
	</style>
	<g id="Background">
		<path id="Path 0" class="s0" d="m540.3 0.1c7.5-0.1 19.2 0.4 26 0.9c6.7 0.6 17.8 1.5 24.7 2c6.9 0.6 18.8 2 26.5 3.1c7.7 1.1 19.9 3.1 27 4.5c7.2 1.4 19.3 4.1 27 6c7.7 1.9 20.1 5.3 27.5 7.6c7.4 2.2 20.7 6.8 29.5 10c8.8 3.3 22.1 8.7 29.5 12c7.4 3.3 20.7 9.7 29.5 14.2c8.8 4.6 21.9 11.8 29 16.1c7.2 4.3 18.6 11.6 25.5 16.3c6.9 4.6 17 11.8 22.5 16c5.5 4.2 14.1 10.9 19 15c5 4.1 15.3 13.2 23 20.2c7.7 7 19 18.1 25.1 24.6c6.1 6.6 15.4 17 20.7 23.1c5.3 6.2 14.5 17.7 20.3 25.5c5.9 7.9 14.1 19.5 18.4 25.8c4.2 6.3 10.6 16.4 14.2 22.5c3.6 6.1 9.6 16.6 13.3 23.5c3.8 6.9 9.8 19 13.5 27c3.7 8 9.7 21.9 13.3 31c3.6 9.1 9 24.1 12 33.5c3 9.4 7.3 24.2 9.5 33c2.3 8.8 5.4 23 7.1 31.5c1.6 8.5 3.9 22 5 30c1.1 8 2.5 20.6 3.1 28c0.6 7.4 1.5 19 2 25.7c0.6 6.8 1 17.5 1 23.8c0 6.3-0.4 16.8-0.9 23.2c-0.6 6.5-1.5 18.1-2.1 25.8c-0.6 7.7-2 20.5-3.1 28.5c-1.1 8-3.4 21.5-5 30c-1.7 8.5-5 23.1-7.4 32.5c-2.4 9.4-6.9 24.9-10 34.5c-3.2 9.6-8.6 24.5-12 33c-3.4 8.5-9.1 21.6-12.5 29c-3.5 7.4-9.7 19.8-13.8 27.5c-4.1 7.7-11.5 20.5-16.4 28.5c-4.9 8-12.6 19.8-17.1 26.2c-4.5 6.4-12.5 17.2-17.7 23.9c-5.2 6.8-14.4 17.9-20.5 24.8c-6 6.9-17 18.7-24.5 26.1c-7.4 7.5-19.2 18.5-26.1 24.5c-6.9 6.1-17.3 14.7-23 19.1c-5.7 4.5-14.7 11.2-19.9 15c-5.2 3.7-15.6 10.7-23 15.4c-7.4 4.8-19.8 12.2-27.5 16.5c-7.7 4.4-20.3 10.9-28 14.6c-7.7 3.7-20.1 9.2-27.5 12.4c-7.4 3.1-21.4 8.3-31 11.6c-9.6 3.3-23.8 7.7-31.5 9.8c-7.7 2.2-19.2 5-25.5 6.5c-6.3 1.4-18 3.7-26 5.1c-8 1.4-20.6 3.2-28 4c-7.4 0.8-22.7 2.2-34 3c-11.3 0.8-24.7 1.5-29.7 1.5c-5.1 0-15-0.5-22-1c-7.1-0.6-18.4-1.5-25.3-2.1c-6.9-0.5-18.8-1.9-26.5-3c-7.7-1.1-19.8-3.1-27-4.5c-7.1-1.4-19.3-4.1-27-6c-7.7-1.9-20.1-5.3-27.5-7.6c-7.4-2.2-20.7-6.8-29.5-10.1c-8.8-3.3-21.2-8.2-27.5-11c-6.3-2.7-17.6-8-25-11.7c-7.4-3.7-19.6-10.2-27-14.5c-7.4-4.3-20-12-28-17.3c-8-5.2-20.3-13.9-27.5-19.2c-7.1-5.4-17.5-13.6-23-18.2c-5.5-4.5-15.6-13.5-22.5-19.9c-6.9-6.4-18.1-17.6-25-25c-6.9-7.4-16.3-17.9-20.9-23.4c-4.6-5.5-12.7-15.9-18.1-23c-5.3-7.1-13.8-19.1-18.7-26.5c-5-7.4-12.1-18.7-15.8-25c-3.8-6.3-11.2-20-16.5-30.5c-5.3-10.5-12.4-25.5-15.8-33.5c-3.4-8-8.6-21.5-11.7-30c-3.1-8.5-8.1-24-11.1-34.5c-3-10.5-7-26.4-9-35.5c-1.9-9.1-4.6-23.5-5.9-32c-1.4-8.5-3.1-22-3.9-30c-0.8-8-2.1-23.7-2.7-35c-1-16.1-1-25.4 0-43c0.6-12.4 1.8-29 2.7-37c0.8-8 2.5-21.5 3.9-30c1.3-8.5 4-23.1 6-32.5c2-9.4 6.1-25.6 9.2-36c3-10.4 7.9-25.8 10.9-34c3-8.3 8.2-21.5 11.6-29.5c3.4-8 10.5-23.1 15.8-33.5c5.3-10.4 13.3-25.1 17.7-32.5c4.5-7.4 12-19.4 16.8-26.5c4.9-7.2 12.1-17.3 16-22.5c4-5.2 11.2-14.4 16.2-20.5c5-6.1 14.4-16.9 21-24c6.6-7.2 17.5-18.2 24.4-24.6c6.8-6.5 16.5-15.2 21.4-19.4c5-4.2 14.2-11.7 20.5-16.6c6.3-4.9 18.3-13.5 26.5-19.1c8.3-5.6 21.3-14 29-18.6c7.7-4.6 22.8-12.7 33.5-18.1c10.7-5.3 25.4-12.1 32.5-15.1c7.2-2.9 19-7.5 26.3-10.2c7.2-2.6 20.3-6.9 29-9.4c8.6-2.5 22.2-6.1 30.2-7.9c8-1.8 19.7-4.3 26-5.4c6.3-1.1 18.5-3 27-4c8.5-1.1 23.2-2.5 32.5-3.1c9.4-0.6 17.5-1.3 18-1.5c0.6-0.2 7.2-0.4 14.8-0.4z" />
		<path id="Path 1" class="s1" d="m0 0l263.3 0.1c224.7 0.2 260.8 0.4 246.7 1.5c-9.1 0.7-22.8 2-30.5 2.9c-7.7 0.9-20.3 2.7-28 4c-7.7 1.3-21 4-29.5 6c-8.5 1.9-23 5.8-32.3 8.5c-9.2 2.8-22.9 7.3-30.5 10.1c-7.5 2.7-20 7.7-27.7 11.1c-7.7 3.3-21.4 9.8-30.5 14.3c-9.1 4.6-22.8 12.1-30.5 16.7c-7.7 4.6-20.8 13-29 18.6c-8.3 5.6-19.9 14-26 18.7c-6.1 4.7-16.2 13-22.5 18.4c-6.3 5.4-16.9 15-23.5 21.3c-6.6 6.3-17.4 17.5-24 24.8c-6.6 7.3-16.9 19.4-23 27c-6.1 7.5-14.7 18.8-19.1 25.1c-4.5 6.3-11.3 16.3-15.1 22.4c-3.9 6.1-10.5 17.1-14.8 24.5c-4.3 7.4-10.7 19.4-14.2 26.5c-3.6 7.1-9.8 20.6-13.8 30c-4 9.4-9.5 23.3-12.3 31c-2.8 7.7-7.5 22.6-10.5 33c-3.1 10.4-7.2 26.6-9.2 36c-2 9.4-4.7 23.8-6 32c-1.3 8.3-3.1 22.2-3.9 31c-0.9 8.8-2 22.1-2.5 29.5c-0.5 7.7-0.9-102.3-1-255.8zm1085 0.1l-0.1 268.2c-0.1 147.5-0.5 263.8-0.9 258.3c-0.5-5.5-1.3-16.1-1.9-23.5c-0.6-7.5-2.3-21.4-3.6-31c-1.4-9.7-3.9-24.1-5.5-32c-1.6-8-4.8-21.5-7-30c-2.2-8.6-7.1-24.8-10.9-36c-3.8-11.3-9.9-27.7-13.5-36.5c-3.7-8.8-11.1-24.8-16.4-35.5c-5.4-10.8-13.6-25.9-18.1-33.5c-4.6-7.7-11.8-19.2-16.1-25.5c-4.2-6.4-12.4-17.9-18.1-25.5c-5.8-7.7-14.7-19-19.9-25c-5.1-6.1-14.1-16.2-19.9-22.4c-5.8-6.3-16.4-16.8-23.6-23.4c-7.1-6.7-17.9-16.2-24-21.3c-6-5-15.9-12.9-22-17.4c-6-4.6-17.9-12.9-26.5-18.6c-8.5-5.6-22-14-30-18.5c-7.9-4.6-22.6-12.2-32.5-17c-9.9-4.8-24.7-11.4-33-14.7c-8.2-3.3-21-8.1-28.5-10.6c-7.4-2.5-19.1-6.1-26-8c-6.8-1.9-18.3-4.9-25.5-6.5c-7.1-1.6-18.1-3.9-24.5-5.1c-6.3-1.1-18.4-2.9-27-4c-8.5-1.1-23.1-2.4-32.5-3.1c-9.3-0.6-17.4-1.2-18-1.4c-0.5-0.2 117.5-0.4 525.5-0.5zm-1083.4 586.5c0.7 9.8 2 24.2 2.9 32c0.9 7.7 2.8 20.5 4.1 28.5c1.4 7.9 4.1 21.7 6.1 30.5c1.9 8.7 5.9 24.1 8.8 34c3 9.8 8.3 25.8 11.9 35.5c3.6 9.6 9.5 24.2 13.1 32.5c3.7 8.2 10.2 21.7 14.5 30c4.3 8.2 11.4 21 15.8 28.5c4.4 7.4 11.5 18.6 15.8 25c4.2 6.3 12.1 17.3 17.5 24.5c5.3 7.1 13.5 17.4 18.1 22.9c4.6 5.5 13.7 15.8 20.3 23c6.6 7.1 17.9 18.3 25.1 25c7.1 6.6 17.5 15.8 23 20.4c5.5 4.6 15.8 12.8 22.9 18.1c7.2 5.4 19.6 14.1 27.5 19.3c8 5.3 21.1 13.3 29 17.8c8 4.6 22.6 12.2 32.5 17c9.9 4.8 24.8 11.4 33 14.7c8.3 3.4 21.8 8.3 30 11.1c8.3 2.7 20.9 6.5 28 8.5c7.2 1.9 18.4 4.7 25 6.1c6.6 1.5 19.7 4 29 5.6c9.4 1.5 24.5 3.5 33.5 4.4c9.1 0.9 21.5 2 27.5 2.4c6.4 0.5-99.4 0.9-516.5 1.2l0.2-268.3c0.1-225.9 0.3-265.4 1.4-250.2zm1083.1-17.5c0.2 0 0.3 120.5 0.3 536l-264.2-0.2c-145.3 0-263.6-0.2-262.8-0.4c0.9-0.2 9.4-0.8 19-1.5c9.7-0.6 24.3-1.9 32.5-3c8.3-1 21.3-3 29-4.4c7.7-1.4 22.4-4.6 32.5-7.1c10.2-2.5 28.4-7.9 40.5-11.9c12.1-4 29.9-10.7 39.5-14.8c9.7-4.1 22.7-10.1 29-13.2c6.4-3.2 18.3-9.6 26.5-14.3c8.3-4.7 20.9-12.3 28-17c7.2-4.7 19.8-13.6 28-19.8c8.3-6.2 18.6-14.2 23-17.9c4.4-3.7 14.5-12.6 22.4-19.9c8-7.2 20.4-19.7 27.7-27.6c7.3-8 16.3-18.2 20-22.5c3.6-4.4 11.2-14.1 16.8-21.5c5.7-7.5 13.4-18.3 17.3-24c3.8-5.8 10.2-15.7 14-22c3.9-6.4 10.4-17.8 14.6-25.5c4.1-7.8 10.5-20.3 14-28c3.6-7.8 9.4-21.5 13-30.5c3.6-9.1 9-24.2 12-33.5c3.1-9.4 7.3-24.3 9.6-33c2.2-8.8 5.4-23 7-31.5c1.7-8.6 3.9-22.1 5-30c1.1-8 2.5-19.7 3-26c0.6-6.4 1.4-16.8 1.7-23.3c0.4-6.5 0.9-11.7 1.1-11.7z" />
		<path id="Path 2" class="s2" d="m539.3 73.4c15.7 0.1 15.9 0.1 17.8 2.6c1.9 2.4 2 4.5 1.9 68.3c0 61.3-0.1 65.8-1.7 67.3c-1.2 1.1-2.8 1.4-4.8 1c-1.6-0.3-11.5-0.2-22 0.4c-10.5 0.6-24.4 1.7-31 2.6c-6.6 0.8-17.4 2.6-24 3.9c-6.6 1.3-17.6 4-24.5 5.9c-6.9 1.9-18.3 5.5-25.5 8.1c-7.1 2.6-20 8.1-28.5 12.1c-8.5 4.1-19.1 9.6-23.5 12.1c-4.4 2.6-13.2 8.2-19.5 12.4c-6.3 4.3-16.2 11.5-22 16.2c-5.8 4.6-15.6 13.3-21.9 19.3c-6.2 6-15.1 15.2-19.6 20.4c-4.6 5.2-12.7 15.4-18.1 22.7c-5.5 7.2-12.8 17.8-16.4 23.5c-3.5 5.6-10.8 18.9-16 29.3c-5.3 10.4-11.2 23.6-13.3 29.3c-2 5.6-4.8 14.1-6.2 18.9c-1.4 4.9-4.3 17.4-6.5 27.8c-2.2 10.4-4.9 21.9-6 25.5c-1.1 3.6-2.6 6.8-3.3 7.2c-0.6 0.4-18.5 0.7-39.7 0.6c-21.2 0-52-0.4-98.5-1.3l0.1-10c0-5.5 0.8-13.8 1.8-18.5c1.2-6.2 2.3-9 3.9-10.3c2-1.6 5-1.8 38-1.7c33.2 0 35.7-0.1 36.2-1.7c0.2-1 1.6-7.2 3-13.8c1.5-6.6 4.9-18.7 7.7-27c2.8-8.2 7.6-20.9 10.8-28c3.1-7.1 8.3-17.9 11.5-24c3.1-6.1 9.3-17.9 13.6-26.2c4.4-8.4 7.9-16.2 7.9-17.3c0-1.3-9-11.3-24.2-27c-13.4-13.8-24.4-25.7-24.5-26.5c-0.2-0.8 0.7-3.2 1.9-5.2c1.2-2.1 4.7-7.2 7.7-11.3c3-4.1 8.9-11.5 13-16.5c4.2-4.9 15.1-16.6 24.2-26c9.2-9.3 21.3-21.1 27-26.2c5.7-5.1 13.6-11.7 17.4-14.8c3.9-3.1 10.7-8.1 15.3-11.1c6.3-4.2 8.6-5.2 10-4.5c0.9 0.6 12.7 12 26.2 25.5c13.5 13.6 25.2 24.6 26 24.6c0.8 0 10.7-5 22-11c11.3-6 27.5-14.2 36-18.3c8.5-4.1 21.8-9.8 29.5-12.7c7.7-2.9 20.5-6.8 28.5-8.8c8-1.9 16.2-3.9 22-5.2v-36.3c0-19.9 0.4-36.8 0.8-37.5c0.4-0.7 4.5-2.1 9.2-3.2c4.7-1 12.8-2.4 18-3.1c5.2-0.6 15.6-1.5 23-1.9c7.4-0.4 20.6-0.7 29.3-0.6zm-80.1 230.3l11.7 0.6c6.4 0.4 15.9 1.5 21.1 2.5c5.2 1.1 10.8 2.6 12.5 3.3c2.3 1.1 3.1 2.3 3.7 5.4c0.3 2.2 1 9.5 1.5 16.2c0.8 11.9 0.9 12.2 3.3 12.8c1.4 0.4 43.9 0.6 94.5 0.5c50.6 0 92.1 0.1 92.2 0.2c0.1 0.2-2.5 3.7-5.8 7.8c-3.3 4.1-6.8 8.4-7.7 9.5c-0.9 1.1-3.7 4.5-6.2 7.5c-2.5 3-5.5 6.6-6.6 8c-1.2 1.4-5.9 7-10.4 12.5c-4.5 5.5-8.6 10.4-9.2 11c-0.6 0.6-38.3 1.2-213.3 2l-6 3c-3.2 1.6-8.2 5.3-11 8c-2.8 2.8-6.8 8.5-9.2 13c-2.3 4.4-5.1 11.4-6.2 15.5c-1.1 4.1-2.5 12-3 17.5c-0.7 6.8-0.7 13.3 0 20.5c0.6 5.8 2.2 14.3 3.6 19c1.3 4.7 4.1 11.6 6.1 15.5c2 3.8 6.2 9.6 9.2 12.8c3.4 3.6 7.8 7 11.5 8.9c4.9 2.4 7.9 3.1 17 3.8c6.1 0.5 23.8 0.9 39.5 1c15.7 0 30.2 0.4 35.9 1.5l-3.6 4c-2 2.2-5.6 6.2-8.1 9c-2.5 2.7-6.9 7.5-9.6 10.5c-2.8 3-8.8 9.6-13.2 14.5c-4.5 5-9.9 11.1-12 13.7c-3.5 4.3-4.3 4.8-11.9 4.7l-4.5 9.7c-2.5 5.3-5.3 10-6.2 10.5c-1.1 0.5-6.4 0.5-13-0.1c-6.2-0.6-14-1.5-17.3-2.1c-3.3-0.5-8.2-1.6-11-2.4c-4.2-1.1-5.3-1.9-6.7-4.9c-1-2-1.8-5.1-1.8-6.9c0-1.7-0.3-5.2-0.6-7.7c-0.6-4.4-0.9-4.6-8.2-9c-4.5-2.6-11.6-8.3-26.7-23.1l-12.5 5c-7.8 3-13.2 4.6-14.4 4.2c-1.1-0.3-4.8-4-8.4-8.1c-3.5-4.1-9.1-11.5-12.3-16.5c-3.3-5-6.2-10.1-6.6-11.5c-0.3-1.4 0-3.4 0.6-4.5c0.7-1.1 5.2-6.8 10.2-12.8c4.9-5.9 8.9-11.5 8.9-12.5c0-0.9-1.1-5.1-2.4-9.2c-1.3-4.1-2.7-10-3.1-13c-0.4-3-1.1-6.3-1.6-7.3c-0.5-0.9-3.3-2.9-6.1-4.3c-2.9-1.5-9.3-4.4-14.3-6.6c-4.9-2.1-9.4-4.4-10-5.2c-0.6-0.8-0.7-5.3-0.2-12.2c0.4-6 1.6-15.3 2.7-20.7c1.1-5.3 2.6-10.9 3.3-12.3c0.6-1.4 2.1-2.7 3.2-2.9c1.1-0.3 8.5-1.2 16.5-2.1c8-0.9 14.8-1.8 15.3-2c0.4-0.2 1.6-2.3 2.6-4.7c1.1-2.3 4.7-8.5 8-13.7c4.2-6.7 5.8-10.1 5.3-11.5c-0.3-1.1-2.9-8.1-5.8-15.5c-2.9-7.4-4.9-14.1-4.5-14.9c0.3-0.8 4.7-4.7 9.6-8.7c5-3.9 13.4-9.9 28.5-19.4l3.3 2.3c1.7 1.3 7.7 6 13.2 10.6c8.7 7.2 10.4 8.2 13 7.8c1.7-0.3 7.7-1.7 13.5-3.2c5.8-1.5 11.6-3 13-3.4c1.7-0.4 3.3-2.3 5.3-6.1c1.5-3 4.8-10 7.3-15.4zm489.9 290.3c64.7 0 69 0.1 69.6 1.7c0.3 1-0.6 9.9-2.1 19.8c-1.5 9.9-3.2 18.4-3.7 19c-0.6 0.6-14.9 1.1-74.4 1.6l-2.3 10.7c-1.3 5.9-3.9 15.9-5.9 22.2c-1.9 6.3-5.5 17.1-8 24c-2.6 6.9-10 23.1-16.6 36c-6.6 12.9-14.2 27.9-16.9 33.2c-2.6 5.4-4.8 10.7-4.8 11.8c0 1.3 9 11.3 24.3 27.1c13.3 13.7 24.4 25.6 24.5 26.2c0.2 0.7-2.4 5.2-5.7 10.2c-3.2 4.9-8.9 12.6-12.4 17c-3.6 4.4-12.5 14.5-19.9 22.5c-7.3 8-20.1 20.7-28.3 28.4c-8.3 7.6-19 17.1-24 21.1c-4.9 3.9-12.6 9.5-17 12.4c-4.4 2.8-8.3 5-8.7 4.9c-0.3-0.2-12.2-11.4-26.2-25.1c-14.1-13.6-26.3-24.7-27.1-24.7c-0.8 0-5 1.7-9.2 3.8c-4.3 2.1-18.4 9.3-31.3 15.9c-12.9 6.6-30.5 14.7-39 18.1c-8.5 3.3-21.8 7.9-29.5 10c-7.7 2.2-17.3 4.6-28.5 6.7v35.5c0 19.5-0.3 36.5-0.7 37.7c-0.6 1.7-2 2.6-5.3 3.3c-2.5 0.5-8.5 1.7-13.5 2.5c-4.9 0.9-16.2 2.2-25 3c-8.8 0.8-21.3 1.5-27.7 1.5c-6.5 0-15.2-0.6-19.4-1.3c-4.2-0.6-7.8-1.7-8-2.2c-0.2-0.6 0-31.7 0.4-69.2c0.4-37.5 0.9-68.4 1.2-68.7c0.3-0.3 13.8-1 30-1.5c24.7-0.8 31.7-1.4 43-3.5c7.4-1.4 20.3-4.4 28.5-6.7c8.3-2.2 20.6-6.1 27.5-8.6c6.9-2.5 17.2-6.6 23-9c5.8-2.5 15.2-7 21-10.1c5.8-3.1 14.8-8.3 20-11.6c5.2-3.2 12-7.7 15-9.9c3-2.2 8-5.8 11-8.1c3-2.2 10.5-8.4 16.5-13.7c6.1-5.3 15.3-14.1 20.5-19.5c5.3-5.5 12.4-13.3 16-17.4c3.5-4.1 10.1-12.5 14.6-18.5c4.4-6.1 10.6-14.8 13.6-19.5c3-4.7 7.7-12.6 10.6-17.5c2.8-5 7.5-14.2 10.5-20.5c3-6.3 7.3-16.5 9.5-22.5c2.2-6.1 5.2-15.5 6.6-21c1.3-5.5 3.9-16.8 5.6-25c1.7-8.3 4.1-18.4 5.3-22.5c1.1-4.1 2.5-8.1 3-8.8c0.7-0.9 15.9-1.2 69.8-1.2zm-600.6 114.2c9.9 0.3 11.6 0.6 17 3.3c4.7 2.4 6.3 3.8 7.7 7c1.6 3.6 1.8 7.5 1.8 36.2c0 24.7-0.3 33.1-1.3 35.5c-0.8 1.8-2.8 4.5-4.5 6c-1.8 1.6-5.1 3.4-7.4 4c-2.4 0.7-9.6 1.3-16.3 1.3c-10.8 0-12.5-0.3-16.9-2.5c-2.8-1.4-5.9-3.8-7-5.3c-2-2.8-2.1-4.1-2.1-74.7l3.5-3.5c2-2 5.9-4.4 9-5.6c4.5-1.6 7.6-1.9 16.5-1.7zm31.5 0.8h22v92l-21.5-0.5l-0.2-45.8zm38 0c9.5 0 10 0.2 10.5 2.3c0.3 1.2 0.5 4 0 10.2h-21l-0.3-4c-0.2-2.2-0.1-5 0.2-6.2c0.6-2.1 1.1-2.3 10.6-2.3zm-0.1 17c8.1 0 10.2 0.3 10.6 1.5c0.2 0.9 0.5 17.2 0.5 36.3c0 19.1-0.4 35.3-0.8 36c-0.5 0.9-3.5 1.2-20.7 0.7l-0.2-35.9c0-19.8 0.1-36.6 0.3-37.3c0.2-0.9 3.2-1.3 10.3-1.3z" />
		<path id="Path 3" class="s0" d="m655.4 401.9c0.6 0.5 8.1 1.1 16.6 1.3c14.4 0.3 15.9 0.5 21 3c3 1.5 7.6 4.7 10.3 7.2c2.6 2.5 6.2 7 8 9.9c1.9 2.8 4.7 8.3 6.2 12.2c1.5 3.9 3.6 11.3 4.7 16.5c1.7 7.9 1.9 12.1 1.5 24.5c-0.4 12.4-0.9 16.6-3.2 24c-1.4 5-4.3 12.1-6.3 16c-2 3.8-5.9 9.3-8.7 12.1c-3 3.1-7.6 6.4-11.5 8.3c-5 2.4-9 3.4-17 4.3c-7.5 0.9-39 1.2-110.5 1.1c-59.7-0.1-105-0.5-112.5-1.1c-10.6-0.9-13.4-1.5-18.5-4c-3.7-1.9-8.1-5.3-11.5-8.9c-3-3.2-7.2-9-9.2-12.8c-2-3.9-4.8-10.8-6.1-15.5c-1.4-4.7-3-13.2-3.6-19c-0.7-7.2-0.7-13.7 0-20.5c0.5-5.5 1.9-13.4 3-17.5c1.1-4.1 3.9-11.1 6.2-15.5c2.4-4.5 6.4-10.2 9.2-13c2.8-2.7 7.8-6.3 17-11l106.2-0.5c58.4-0.3 106.5-0.8 106.9-1.2c0.4-0.4 1.2-0.4 1.8 0.1z" />
		<path id="Path 4" fill-rule="evenodd" class="s3" d="m584.5 75c0.3 0 9 1.3 19.5 3c10.5 1.7 19.5 3 20 3c0.6 0 1.1 13.4 1.5 75.4l13 2.2c7.1 1.3 18.9 4.2 26 6.5c7.1 2.3 17.7 6.2 23.5 8.6c5.8 2.5 16.6 7.6 24 11.4c7.4 3.8 21.8 11.4 32 16.9c10.2 5.5 19 10 19.5 10c0.5 0 12.8-11.4 53.5-51l3.8 2.2c2 1.1 8.7 5.8 14.7 10.3c6 4.5 17.3 13.8 25 20.7c7.7 6.9 19.4 18.1 25.9 24.9c6.6 6.8 16.2 17.3 21.4 23.4c5.2 6.1 11.8 14.1 14.7 18c2.9 3.9 6.8 9.4 12 17.6l-52.5 52.4l14.5 27.5c8 15.1 17.2 33.6 20.5 41c3.2 7.4 7.5 18 9.5 23.5c2 5.5 4.9 15.2 6.5 21.5c1.6 6.3 3.4 14.5 5 25l34.8 0.2c28.5 0.3 35.2 0.6 37.7 1.8c2 1 3.5 3 4.6 6c1 2.5 2.5 9.4 3.4 15.5c0.9 6.1 2.1 19.5 2.6 30c0.6 10.5 0.8 24.9-0.3 45l-18.1 0.8c-10 0.4-41 0.7-119.7 0.7l-0.5-3.8c-0.2-2-0.9-8.2-1.4-13.7c-0.5-5.5-1.3-15.9-1.6-23c-0.3-7.1-1.3-17.9-2.1-24c-0.8-6.1-3.1-18-5.1-26.5c-1.9-8.5-5.6-21.6-8-29c-2.5-7.4-6.7-19.1-9.5-26c-2.8-6.9-8.1-18.6-11.9-26c-3.7-7.4-10-18.4-14-24.5c-3.9-6.1-12.6-18.2-19.2-27q-12.1-16-27.2-31.1c-8.2-8.3-20.6-19.6-27.5-25c-6.9-5.5-18.4-13.8-25.5-18.6c-7.1-4.7-18.4-11.7-25-15.4c-6.6-3.8-18.5-9.8-26.5-13.5c-8-3.7-20.4-8.8-27.5-11.4c-7.1-2.6-18.9-6.2-26-8c-7.1-1.8-17.7-4.1-23.5-4.9c-5.8-0.9-12-1.6-17-1.6v-70.5c0-38.8 0.2-70.5 0.5-70.5zm119.7 270c2.1 0 7.5 1.4 12.1 3.2c4.5 1.7 12 5.7 16.7 8.9c4.7 3.1 11.7 9 15.5 13c3.9 4.1 8.9 10.1 11.1 13.4c2.3 3.3 6.2 10.1 8.7 15c2.4 4.9 6.1 14.2 8.1 20.5c1.9 6.3 4.3 15.6 5.3 20.5c1.4 7.1 1.8 13.9 1.7 32.5c0 20.5-0.3 24.8-2.3 34c-1.2 5.8-3.7 15-5.5 20.5c-1.9 5.5-5.4 14-7.9 19c-2.5 5-6.1 11.3-8.1 14c-2 2.8-5.4 6.9-11.6 13.5l4 4.5c2.2 2.5 5.5 6.9 7.4 9.8c1.8 2.8 5 8.6 7.1 12.7c2.1 4.1 5.3 12 7.1 17.5c1.8 5.5 4.3 15.4 5.4 22c1.1 6.6 2.3 17.4 2.6 24c0.4 6.8 0.1 17-0.5 23.5c-0.7 6.3-1.9 14.9-2.7 19c-0.9 4.1-2.7 11.3-4.1 16c-1.3 4.7-4.6 13-7.2 18.5c-2.6 5.5-7.1 13.6-10.1 18c-3 4.4-8.6 11.2-12.5 15c-3.8 3.9-9.7 8.9-13 11.2c-3.3 2.2-8.2 5.2-11 6.6c-2.7 1.4-7.9 3.5-11.5 4.7c-3.6 1.2-9.8 2.8-13.7 3.6c-5.7 1.1-19.9 1.4-66 1.5c-45.9 0-59.7-0.3-62.8-1.3c-2.7-0.9-4.5-2.3-5.5-4.3c-1.2-2.4-1.5-8.3-2-58.5h-10v-11h10v-15h22v15h12v11h-12v23.8c0 13 0.4 24.3 0.8 25c0.4 0.7 2.5 1.6 4.7 2.1c2.2 0.6 4.3 0.8 4.8 0.5c0.4-0.2 0.7-10.8 0.7-46.4h41.8c26.3 0 43.9-0.4 47.7-1.1c3.3-0.6 8-2.1 10.5-3.3c2.4-1.1 6.9-4.4 9.8-7.1c3-2.8 6.9-7.5 8.7-10.5c1.8-3 4.5-8.9 5.9-13c1.5-4.1 3.4-11.3 4.2-16c0.8-4.7 1.4-13.2 1.4-19c0-5.8-0.7-14.5-1.5-19.5c-0.9-5-2.3-11.3-3.2-14c-0.8-2.8-3.2-8.4-5.1-12.5c-2.6-5.4-5.6-9.5-10.7-14.6c-5.2-5.3-8.5-7.7-19-11.9h-99c-54.5 0-100.2-0.4-104.5-1.5l3.2-3.8c1.7-2 6.7-7.7 11.2-12.7c4.5-4.9 10.6-11.7 13.6-15c3-3.3 5.7-6.2 6-6.5c0.3-0.3 3.7-4.1 14.8-16.5l70.9-0.8c38.9-0.4 74.8-1.2 79.8-1.7c6.6-0.7 10.7-1.8 15.5-4.1c3.9-1.9 8.5-5.2 11.5-8.3c2.7-2.8 6.7-8.3 8.7-12.1c2-3.9 4.9-11.1 6.3-16c2.3-7.4 2.8-11.6 3.2-24c0.4-12.4 0.2-16.6-1.5-24.5c-1.1-5.2-3.2-12.6-4.7-16.5c-1.5-3.9-4.3-9.4-6.2-12.3c-1.8-2.8-5.4-7.3-8.1-9.8c-2.6-2.5-7.2-5.7-10.2-7.2c-5.1-2.5-6.7-2.7-21.4-3.2c-11.6-0.4-16-0.8-16.3-1.8c-0.2-0.6 3.3-5.6 7.8-11c4.5-5.3 9.1-10.8 10.3-12.2c1.1-1.4 4.1-5 6.6-8c2.5-3 4.7-5.7 5-6c0.3-0.3 3.9-4.7 7.9-9.8c7.1-8.7 7.7-9.2 11.3-9.2zm-571.2 191c37.4 0 68 0.3 68 0.7c0 0.5 0.9 7.8 1.9 16.3c1.1 8.5 2.5 21.8 3.1 29.5c0.7 7.7 2.1 19.4 3.1 26c1.1 6.6 3.3 17.6 5 24.5c1.7 6.9 5.1 18.6 7.6 26c2.4 7.4 6.5 18.5 9 24.5c2.4 6 7.9 17.7 12.1 26c4.2 8.2 11.1 20.2 15.3 26.5c4.2 6.3 10.6 15.3 14.3 20c3.7 4.7 12.9 15.2 20.4 23.4c7.5 8.2 18.7 19.5 24.7 25c6.1 5.6 15.8 13.7 21.5 18.2c5.8 4.4 14.6 10.8 19.5 14.1c5 3.3 13.7 8.7 19.5 12.1c5.8 3.3 15.1 8.1 20.8 10.6c5.6 2.5 16.2 6.6 23.5 9c7.2 2.4 20.4 6.1 29.2 8.1c8.8 2 19.6 4.5 24 5.6c4.4 1.1 11.9 3.2 25.5 7.4l-0.1 49c-0.1 27-0.5 58.2-1.4 90h-13c-11.9 0-13.4-0.2-18-2.5c-3.1-1.6-5.7-3.8-7-6c-1.9-3.3-2-5.5-2.6-71.5l-12.7-2.7c-7-1.5-16.7-3.9-21.7-5.3c-4.9-1.5-13.3-4.2-18.5-6.1c-5.2-2-18.5-8-29.5-13.4c-11-5.5-27.6-14-37-18.9c-9.3-5-17.6-9.1-18.2-9.1c-0.7 0-13.1 11.5-53.8 50.9l-3.5-2.1c-1.9-1.2-8.4-5.8-14.5-10.4c-6-4.5-15-11.7-20-15.9c-4.9-4.3-17.1-15.9-27-25.9c-9.9-10-22.9-24-28.8-31.1c-6-7.1-13.8-17.3-23.8-32l53.1-52l-10-19c-5.5-10.5-13.6-26.2-18.1-35c-4.5-8.8-10.1-20.7-12.4-26.5c-2.4-5.8-5.8-15.2-7.6-21c-1.8-5.8-4.4-16.5-8.4-37.3l-16.5 0.4c-9.1 0.2-23 0.3-31 0.2c-8-0.1-16.9-0.7-19.7-1.3c-2.9-0.5-6.2-1.9-7.3-3c-1.1-1.1-2.5-3.7-3-5.8c-0.6-2-1.7-8-2.5-13.2c-0.8-5.2-2-17.6-2.6-27.5c-0.6-9.9-0.9-24.6-0.7-32.7c0.3-8 0.8-15.1 1.2-15.7c0.5-0.8 20.6-1.1 68.6-1.1zm301.1 172.9l20.2 0.3c19.2 0.3 20.4 0.4 25.1 2.8c2.8 1.4 5.8 3.9 6.8 5.5c1.4 2.4 1.8 5.2 1.8 13.7c0 10.3-0.1 10.9-2.7 14c-1.6 1.7-4.3 3.7-6 4.5c-1.8 0.7-3.3 1.5-3.3 1.8c0 0.3 1.9 1.3 4.3 2.4c2.3 1 5.1 2.8 6.2 4.1c1.8 2 2 3.6 2 16.9c0 13.2-0.2 14.9-2.1 17.6c-1.1 1.6-4.3 4.1-7 5.5c-4.7 2.4-5.8 2.5-45.4 3zm86.4 17.5c9.4 0.1 11.6 0.5 15.9 2.7c2.7 1.3 5.9 3.7 7 5.3c1.9 2.7 2.1 4.2 2.1 30c0 24.2-0.2 27.5-1.8 29.9c-1 1.5-3.7 3.7-6 5c-3.4 1.7-6.4 2.2-15.2 2.6c-8 0.3-12.6 0-16.5-1.1c-3.9-1.1-6.5-2.6-12-8.8v-56.5l3.7-3.5c2.1-2 5.6-4.1 7.8-4.7c2.2-0.6 8.9-1.1 15-0.9z" />
		<path id="Path 5" class="s0" d="m350.5 721.5l0.3 31.5c0.1 17.3 0 32.5-0.3 33.8c-0.4 1.8-1.1 2.2-7 1.7l-0.1-32.5c-0.1-17.9 0-33.1 0.2-33.8c0.3-0.8 1.7-1.2 6.9-0.7zm109.8-0.5c1.2 0 2.8 0.5 3.5 1.2c0.8 0.9 1.2 4.6 1.2 11.6c0 9.2-0.2 10.3-2 11.2c-1.1 0.5-2.7 1-3.5 1c-1.3 0-1.5-2.1-1.5-12.5c0-12.3 0-12.5 2.3-12.5zm58.9 16c0.4 0 1.5 0.2 2.3 0.5c1.3 0.4 1.5 4.3 1.5 26.5c0 25.2-0.1 26-2 26.5c-1.1 0.3-2.7-0.1-3.5-0.7c-1.4-1.1-1.6-5-1.7-25.8c-0.2-20 0.1-24.8 1.2-25.8c0.8-0.7 1.8-1.2 2.2-1.2zm-60.9 18.8l2.6 0.7c1.4 0.4 2.9 1.2 3.3 1.8c0.4 0.7 0.8 7.3 0.8 14.7c0 9.3-0.3 13.9-1.2 14.8c-0.7 0.6-2.2 1.2-5.8 1.2l0.1-16.6z" />
	</g>
</svg>